# xmcd CD database file
#
# Track frame offsets:
#	150
#	6515
#	21634
#	37899
#	56687
#	77755
#	102539
#	120800
#	139715
#	159303
#	181531
#	200997
#	216716
#	236135
#	251406
#
# Disc length: 3636 seconds
#
# Revision: 1
# Processed by: cddbd v1.5.2PL0 Copyright (c) Steve Scherf et al.
# Submitted via: CDex 1.51
#
DISCID=d20e320f
DTITLE=Ludacris - Battle Of The Sexes
DYEAR=2010
DGENRE=Hip Hop
TTITLE0=Intro
TTITLE1=How Low
TTITLE2=My Chick Bad
TTITLE3=Everybody Drunk
TTITLE4=I Do It All Night
TTITLE5=Sex Room
TTITLE6=I Know You Got A Man
TTITLE7=Hey Ho
TTITLE8=Party No Mo'
TTITLE9=B.O.T.S. Radio
TTITLE10=Can't Live With You
TTITLE11=Feelin' So Sexy
TTITLE12=Tell Me A Secret
TTITLE13=My Chick Bad (Remix)
TTITLE14=Sexting
EXTD=YEAR: 2010
EXTT0=
EXTT1=
EXTT2=
EXTT3=
EXTT4=
EXTT5=
EXTT6=
EXTT7=
EXTT8=
EXTT9=
EXTT10=
EXTT11=
EXTT12=
EXTT13=
EXTT14=
PLAYORDER=
